<svg width="1920" height="1080" viewBox="0 0 1920 1080" fill="none" xmlns="http://www.w3.org/2000/svg">
<rect width="1920" height="1080" fill="#191919"></rect>
<path d="M712.62 546V417.84H738.72L786.42 487.68H775.08L822.6 417.84H848.7V546H813.06V476.88L818.28 478.32L792.18 515.76H769.14L743.22 478.32L748.26 476.88V546H712.62ZM923.764 548.16C912.484 548.16 902.644 545.88 894.244 541.32C885.844 536.64 879.304 530.22 874.624 522.06C869.944 513.9 867.604 504.54 867.604 493.98V417.84H903.604V497.22C903.604 501.3 904.504 504.78 906.304 507.66C908.104 510.54 910.504 512.76 913.504 514.32C916.624 515.76 920.044 516.48 923.764 516.48C927.604 516.48 930.964 515.76 933.844 514.32C936.844 512.76 939.184 510.6 940.864 507.84C942.544 504.96 943.384 501.48 943.384 497.4V417.84H979.564V494.16C979.564 504.72 977.224 514.08 972.544 522.24C967.984 530.28 961.504 536.64 953.104 541.32C944.824 545.88 935.044 548.16 923.764 548.16ZM1029.04 546V417.84H1065.04V546H1029.04ZM990.7 448.44V417.84H1103.56V448.44H990.7ZM1170.91 548.16C1159.63 548.16 1149.79 545.88 1141.39 541.32C1132.99 536.64 1126.45 530.22 1121.77 522.06C1117.09 513.9 1114.75 504.54 1114.75 493.98V417.84H1150.75V497.22C1150.75 501.3 1151.65 504.78 1153.45 507.66C1155.25 510.54 1157.65 512.76 1160.65 514.32C1163.77 515.76 1167.19 516.48 1170.91 516.48C1174.75 516.48 1178.11 515.76 1180.99 514.32C1183.99 512.76 1186.33 510.6 1188.01 507.84C1189.69 504.96 1190.53 501.48 1190.53 497.4V417.84H1226.71V494.16C1226.71 504.72 1224.37 514.08 1219.69 522.24C1215.13 530.28 1208.65 536.64 1200.25 541.32C1191.97 545.88 1182.19 548.16 1170.91 548.16ZM1245.59 546V417.84H1271.69L1319.39 487.68H1308.05L1355.57 417.84H1381.67V546H1346.03V476.88L1351.25 478.32L1325.15 515.76H1302.11L1276.19 478.32L1281.23 476.88V546H1245.59Z" fill="#DBD4C9"></path>
<path d="M710.91 672V611.16H713.79V672H710.91ZM712.53 672V669.39H747.81V672H712.53ZM753.873 672L778.623 611.16H781.323L805.893 672H802.743L779.253 613.68H780.603L756.933 672H753.873ZM764.223 651.93V649.32H795.633V651.93H764.223ZM820.016 672V669.39H841.166C846.086 669.39 850.016 668.1 852.956 665.52C855.956 662.94 857.456 659.52 857.456 655.26C857.456 652.5 856.796 650.07 855.476 647.97C854.216 645.87 852.446 644.22 850.166 643.02C847.886 641.82 845.246 641.22 842.246 641.22H820.016V638.79H841.796C845.756 638.79 848.876 637.68 851.156 635.46C853.436 633.18 854.576 630.12 854.576 626.28C854.576 622.38 853.286 619.32 850.706 617.1C848.126 614.88 844.676 613.77 840.356 613.77H820.016V611.16H840.356C843.836 611.16 846.836 611.76 849.356 612.96C851.936 614.16 853.916 615.87 855.296 618.09C856.736 620.31 857.456 622.98 857.456 626.1C857.456 629.7 856.556 632.76 854.756 635.28C852.956 637.74 850.346 639.48 846.926 640.5L847.376 639.42C851.456 640.38 854.636 642.27 856.916 645.09C859.256 647.91 860.426 651.3 860.426 655.26C860.426 658.62 859.616 661.56 857.996 664.08C856.376 666.6 854.096 668.55 851.156 669.93C848.216 671.31 844.736 672 840.716 672H820.016ZM818.576 672V611.16H821.456V672H818.576ZM890.511 672.9C885.831 672.9 881.751 672 878.271 670.2C874.791 668.34 871.821 665.82 869.361 662.64L871.431 660.66C873.951 664.08 876.801 666.54 879.981 668.04C883.161 669.48 886.731 670.2 890.691 670.2C895.131 670.2 898.761 669.12 901.581 666.96C904.401 664.8 905.811 661.8 905.811 657.96C905.811 655.08 905.211 652.74 904.011 650.94C902.871 649.08 901.341 647.58 899.421 646.44C897.501 645.3 895.401 644.31 893.121 643.47C890.841 642.57 888.561 641.7 886.281 640.86C884.001 639.96 881.901 638.88 879.981 637.62C878.061 636.3 876.501 634.65 875.301 632.67C874.161 630.63 873.591 628.05 873.591 624.93C873.591 621.99 874.281 619.44 875.661 617.28C877.101 615.06 879.081 613.35 881.601 612.15C884.121 610.89 887.061 610.26 890.421 610.26C894.321 610.26 897.801 611.01 900.861 612.51C903.921 614.01 906.531 616.17 908.691 618.99L906.621 620.97C904.581 618.39 902.241 616.41 899.601 615.03C897.021 613.65 893.961 612.96 890.421 612.96C886.341 612.96 883.011 614.01 880.431 616.11C877.851 618.21 876.561 621.12 876.561 624.84C876.561 627.54 877.131 629.76 878.271 631.5C879.471 633.18 881.031 634.59 882.951 635.73C884.871 636.81 886.971 637.77 889.251 638.61C891.531 639.39 893.811 640.23 896.091 641.13C898.371 642.03 900.471 643.14 902.391 644.46C904.311 645.78 905.841 647.49 906.981 649.59C908.181 651.63 908.781 654.24 908.781 657.42C908.781 662.52 907.131 666.39 903.831 669.03C900.591 671.61 896.151 672.9 890.511 672.9Z" fill="#DBD4C9"></path>
<path d="M336.518 485.013C375.113 485.013 406.4 516.25 406.4 554.783C406.4 593.317 375.113 624.554 336.518 624.554C336.067 624.554 335.616 624.549 335.167 624.54L335.175 624.554L220.838 627.119C218.513 627.171 217.015 624.673 218.157 622.647L273.882 523.81C285.31 500.817 309.066 485.013 336.518 485.013Z" fill="#EE736E"></path>
<path fill-rule="evenodd" clip-rule="evenodd" d="M466.873 511.848C448.505 524.685 414.084 515.927 414.084 515.927C414.084 515.927 427.903 546.733 415.806 582.96C403.709 619.187 390.272 615.162 391.615 621.871C392.959 628.58 462.84 623.213 492.407 588.327C521.975 553.441 536.757 490.379 523.316 482.329C509.875 474.279 480.312 502.456 466.873 511.848Z" fill="#EE736E"></path>
<path d="M437.31 407.191C440.576 407.191 443.764 407.524 446.843 408.157C437.44 410.982 430.59 419.692 430.59 430.001C430.59 442.598 440.819 452.811 453.437 452.811C466.054 452.81 476.282 442.598 476.282 430.001C476.282 429.219 476.242 428.446 476.165 427.685C481.325 435.221 484.346 444.334 484.346 454.152C484.346 480.088 463.287 501.113 437.31 501.113C411.333 501.113 390.274 480.088 390.274 454.152C390.274 428.217 411.333 407.191 437.31 407.191Z" fill="#EC2B26"></path>
<path fill-rule="evenodd" clip-rule="evenodd" d="M210.193 640.655H317.704C317.704 640.655 300.233 684.933 257.229 707.742C214.224 730.551 178.966 715.792 175.252 709.084C171.537 702.375 210.193 640.655 210.193 640.655Z" fill="#EC2B26"></path>
<path d="M410.432 360.23C346.858 369.81 317.545 455.285 311.98 473.54C311.521 475.047 312.943 476.372 314.46 475.952C320.266 474.345 332.13 471.403 340.55 471.594C348.923 471.784 360.7 475.227 366.541 477.105C368.069 477.596 369.626 476.198 369.329 474.62C366.285 458.433 358.657 394.095 427.903 387.064C499.184 379.827 500.952 451.751 500.583 466.353C500.549 467.665 501.727 468.681 503.02 468.453C508.298 467.524 520.613 465.455 528.694 464.886C537.318 464.278 551.664 466.469 556.561 467.28C557.541 467.442 558.474 466.863 558.641 465.883C559.316 461.91 559.943 451.098 551.54 435.368C542.165 417.818 525.638 413.53 521.56 412.72C520.972 412.604 520.457 412.277 520.126 411.777C515.361 404.576 476.97 350.203 410.432 360.23Z" fill="#ED2C27"></path>
<path d="M335.975 644.423L325.862 664.617C325.199 665.941 326.155 667.502 327.636 667.512L511.894 668.826C512.331 668.83 512.762 668.689 513.103 668.416C523.27 660.284 521.793 645.953 511.224 641.996C509.81 641.467 395.87 642.43 337.704 643.32C336.958 643.331 336.309 643.757 335.975 644.423Z" fill="#ED2C27"></path>
<path d="M468.271 289.493C492.149 309.73 491.879 354.623 484.904 357.191C477.929 359.759 470.799 342.629 462.213 335.481C453.627 328.333 426.07 312.408 404.317 293.044C382.565 273.68 393.26 247.615 401.326 237.003C413.692 246.068 444.394 269.255 468.271 289.493Z" fill="#ED2C27"></path>
<path d="M380.537 291.803C411.347 297.324 433.644 336.288 428.9 342.01C424.156 347.732 409.391 336.495 398.378 334.621C387.364 332.747 355.537 332.803 327.004 326.971C298.471 321.14 294.64 293.228 296.291 280.001C311.536 281.634 349.728 286.282 380.537 291.803Z" fill="#ED2C27"></path>
<path d="M300.36 339.074C329.633 327.993 368.773 349.983 367.639 357.329C366.506 364.675 348.066 362.612 337.653 366.658C327.239 370.705 299.955 387.093 272.476 396.738C244.997 406.383 227.379 384.397 222.005 372.198C235.927 365.773 271.087 350.154 300.36 339.074Z" fill="#ED2C27"></path>
<path d="M260.934 424.43C279.189 399.005 323.959 395.67 327.079 402.417C330.199 409.163 313.696 417.646 307.26 426.777C300.824 435.909 287.162 464.655 269.607 487.892C252.051 511.128 225.212 502.56 213.987 495.371C222.029 482.317 242.678 449.854 260.934 424.43Z" fill="#ED2C27"></path>
</svg>