<svg width="1920" height="1080" viewBox="0 0 1920 1080" fill="none" xmlns="http://www.w3.org/2000/svg">
<rect width="1920" height="1080" fill="#F0EFEB"></rect>
<path d="M712.62 546V417.84H738.72L786.42 487.68H775.08L822.6 417.84H848.7V546H813.06V476.88L818.28 478.32L792.18 515.76H769.14L743.22 478.32L748.26 476.88V546H712.62ZM923.764 548.16C912.484 548.16 902.644 545.88 894.244 541.32C885.844 536.64 879.304 530.22 874.624 522.06C869.944 513.9 867.604 504.54 867.604 493.98V417.84H903.604V497.22C903.604 501.3 904.504 504.78 906.304 507.66C908.104 510.54 910.504 512.76 913.504 514.32C916.624 515.76 920.044 516.48 923.764 516.48C927.604 516.48 930.964 515.76 933.844 514.32C936.844 512.76 939.184 510.6 940.864 507.84C942.544 504.96 943.384 501.48 943.384 497.4V417.84H979.564V494.16C979.564 504.72 977.224 514.08 972.544 522.24C967.984 530.28 961.504 536.64 953.104 541.32C944.824 545.88 935.044 548.16 923.764 548.16ZM1029.04 546V417.84H1065.04V546H1029.04ZM990.7 448.44V417.84H1103.56V448.44H990.7ZM1170.91 548.16C1159.63 548.16 1149.79 545.88 1141.39 541.32C1132.99 536.64 1126.45 530.22 1121.77 522.06C1117.09 513.9 1114.75 504.54 1114.75 493.98V417.84H1150.75V497.22C1150.75 501.3 1151.65 504.78 1153.45 507.66C1155.25 510.54 1157.65 512.76 1160.65 514.32C1163.77 515.76 1167.19 516.48 1170.91 516.48C1174.75 516.48 1178.11 515.76 1180.99 514.32C1183.99 512.76 1186.33 510.6 1188.01 507.84C1189.69 504.96 1190.53 501.48 1190.53 497.4V417.84H1226.71V494.16C1226.71 504.72 1224.37 514.08 1219.69 522.24C1215.13 530.28 1208.65 536.64 1200.25 541.32C1191.97 545.88 1182.19 548.16 1170.91 548.16ZM1245.59 546V417.84H1271.69L1319.39 487.68H1308.05L1355.57 417.84H1381.67V546H1346.03V476.88L1351.25 478.32L1325.15 515.76H1302.11L1276.19 478.32L1281.23 476.88V546H1245.59Z" fill="black"></path>
<path d="M710.91 672V611.16H713.79V672H710.91ZM712.53 672V669.39H747.81V672H712.53ZM753.873 672L778.623 611.16H781.323L805.893 672H802.743L779.253 613.68H780.603L756.933 672H753.873ZM764.223 651.93V649.32H795.633V651.93H764.223ZM820.016 672V669.39H841.166C846.086 669.39 850.016 668.1 852.956 665.52C855.956 662.94 857.456 659.52 857.456 655.26C857.456 652.5 856.796 650.07 855.476 647.97C854.216 645.87 852.446 644.22 850.166 643.02C847.886 641.82 845.246 641.22 842.246 641.22H820.016V638.79H841.796C845.756 638.79 848.876 637.68 851.156 635.46C853.436 633.18 854.576 630.12 854.576 626.28C854.576 622.38 853.286 619.32 850.706 617.1C848.126 614.88 844.676 613.77 840.356 613.77H820.016V611.16H840.356C843.836 611.16 846.836 611.76 849.356 612.96C851.936 614.16 853.916 615.87 855.296 618.09C856.736 620.31 857.456 622.98 857.456 626.1C857.456 629.7 856.556 632.76 854.756 635.28C852.956 637.74 850.346 639.48 846.926 640.5L847.376 639.42C851.456 640.38 854.636 642.27 856.916 645.09C859.256 647.91 860.426 651.3 860.426 655.26C860.426 658.62 859.616 661.56 857.996 664.08C856.376 666.6 854.096 668.55 851.156 669.93C848.216 671.31 844.736 672 840.716 672H820.016ZM818.576 672V611.16H821.456V672H818.576ZM890.511 672.9C885.831 672.9 881.751 672 878.271 670.2C874.791 668.34 871.821 665.82 869.361 662.64L871.431 660.66C873.951 664.08 876.801 666.54 879.981 668.04C883.161 669.48 886.731 670.2 890.691 670.2C895.131 670.2 898.761 669.12 901.581 666.96C904.401 664.8 905.811 661.8 905.811 657.96C905.811 655.08 905.211 652.74 904.011 650.94C902.871 649.08 901.341 647.58 899.421 646.44C897.501 645.3 895.401 644.31 893.121 643.47C890.841 642.57 888.561 641.7 886.281 640.86C884.001 639.96 881.901 638.88 879.981 637.62C878.061 636.3 876.501 634.65 875.301 632.67C874.161 630.63 873.591 628.05 873.591 624.93C873.591 621.99 874.281 619.44 875.661 617.28C877.101 615.06 879.081 613.35 881.601 612.15C884.121 610.89 887.061 610.26 890.421 610.26C894.321 610.26 897.801 611.01 900.861 612.51C903.921 614.01 906.531 616.17 908.691 618.99L906.621 620.97C904.581 618.39 902.241 616.41 899.601 615.03C897.021 613.65 893.961 612.96 890.421 612.96C886.341 612.96 883.011 614.01 880.431 616.11C877.851 618.21 876.561 621.12 876.561 624.84C876.561 627.54 877.131 629.76 878.271 631.5C879.471 633.18 881.031 634.59 882.951 635.73C884.871 636.81 886.971 637.77 889.251 638.61C891.531 639.39 893.811 640.23 896.091 641.13C898.371 642.03 900.471 643.14 902.391 644.46C904.311 645.78 905.841 647.49 906.981 649.59C908.181 651.63 908.781 654.24 908.781 657.42C908.781 662.52 907.131 666.39 903.831 669.03C900.591 671.61 896.151 672.9 890.511 672.9Z" fill="black"></path>
<path d="M372.518 517.013C411.113 517.013 442.4 548.25 442.4 586.783C442.4 625.317 411.113 656.554 372.518 656.554C372.067 656.554 371.616 656.549 371.167 656.54L371.175 656.554L256.838 659.119C254.513 659.171 253.015 656.673 254.157 654.647L309.882 555.81C321.31 532.817 345.066 517.013 372.518 517.013Z" fill="#EE736E"></path>
<path fill-rule="evenodd" clip-rule="evenodd" d="M502.873 543.848C484.505 556.685 450.084 547.927 450.084 547.927C450.084 547.927 463.903 578.733 451.806 614.96C439.709 651.187 426.272 647.162 427.615 653.871C428.959 660.58 498.84 655.213 528.407 620.327C557.975 585.441 572.757 522.379 559.316 514.329C545.875 506.279 516.312 534.456 502.873 543.848Z" fill="#EE736E"></path>
<path d="M473.31 439.191C476.576 439.191 479.764 439.524 482.843 440.157C473.44 442.982 466.59 451.692 466.59 462.001C466.59 474.598 476.819 484.811 489.437 484.811C502.054 484.81 512.282 474.598 512.282 462.001C512.282 461.219 512.242 460.446 512.165 459.685C517.325 467.221 520.346 476.334 520.346 486.152C520.346 512.088 499.287 533.113 473.31 533.113C447.333 533.113 426.274 512.088 426.274 486.152C426.274 460.217 447.333 439.191 473.31 439.191Z" fill="#EC2B26"></path>
<path fill-rule="evenodd" clip-rule="evenodd" d="M246.193 672.655H353.704C353.704 672.655 336.233 716.933 293.229 739.742C250.224 762.551 214.966 747.792 211.252 741.084C207.537 734.375 246.193 672.655 246.193 672.655Z" fill="#EC2B26"></path>
<path d="M446.432 392.23C382.858 401.81 353.545 487.285 347.98 505.54C347.521 507.047 348.943 508.372 350.46 507.952C356.266 506.345 368.13 503.403 376.55 503.594C384.923 503.784 396.7 507.227 402.541 509.105C404.069 509.596 405.626 508.198 405.329 506.62C402.285 490.433 394.657 426.095 463.903 419.064C535.184 411.827 536.952 483.751 536.583 498.353C536.549 499.665 537.727 500.681 539.02 500.453C544.298 499.524 556.613 497.455 564.694 496.886C573.318 496.278 587.664 498.469 592.561 499.28C593.541 499.442 594.474 498.863 594.641 497.883C595.316 493.91 595.943 483.098 587.54 467.368C578.165 449.818 561.638 445.53 557.56 444.72C556.972 444.604 556.457 444.277 556.126 443.777C551.361 436.576 512.97 382.203 446.432 392.23Z" fill="#ED2C27"></path>
<path d="M371.975 676.423L361.862 696.617C361.199 697.941 362.155 699.502 363.636 699.512L547.894 700.826C548.331 700.83 548.762 700.689 549.103 700.416C559.27 692.284 557.793 677.953 547.224 673.996C545.81 673.467 431.87 674.43 373.704 675.32C372.958 675.331 372.309 675.757 371.975 676.423Z" fill="#ED2C27"></path>
<path d="M504.271 321.493C528.149 341.73 527.879 386.623 520.904 389.191C513.929 391.759 506.799 374.629 498.213 367.481C489.627 360.333 462.07 344.408 440.317 325.044C418.565 305.68 429.26 279.615 437.326 269.003C449.692 278.068 480.394 301.255 504.271 321.493Z" fill="#ED2C27"></path>
<path d="M416.537 323.803C447.347 329.324 469.644 368.288 464.9 374.01C460.156 379.732 445.391 368.495 434.378 366.621C423.364 364.747 391.537 364.803 363.004 358.971C334.471 353.14 330.64 325.228 332.291 312.001C347.536 313.634 385.728 318.282 416.537 323.803Z" fill="#ED2C27"></path>
<path d="M336.36 371.074C365.633 359.993 404.773 381.983 403.639 389.329C402.506 396.675 384.066 394.612 373.653 398.658C363.239 402.705 335.955 419.093 308.476 428.738C280.997 438.383 263.379 416.397 258.005 404.198C271.927 397.773 307.087 382.154 336.36 371.074Z" fill="#ED2C27"></path>
<path d="M296.934 456.43C315.189 431.005 359.959 427.67 363.079 434.417C366.199 441.163 349.696 449.646 343.26 458.777C336.824 467.909 323.162 496.655 305.607 519.892C288.051 543.128 261.212 534.56 249.987 527.371C258.029 514.317 278.678 481.854 296.934 456.43Z" fill="#ED2C27"></path>
</svg>